# xmcd
#
# Track frame offsets: 
#        150
#        16813
#        29928
#        44975
#        60870
#        77525
#        90693
#        107675
#        121243
#        132330
#
# Disc length: 2058 seconds
#
# Revision: 3
# Processed by: cddbd v1.5.2PL0 Copyright (c) Steve Scherf et al.
# Submitted via: ExactAudioCopyFreeDBPlugin 1.0
#
DISCID=8008080a
DTITLE=Diamond Rio - Love A Little Stronger
DYEAR=1994
DGENRE=Country
TTITLE0=Love A Little Stronger
TTITLE1=You Ain't In It
TTITLE2=Finish What We Started
TTITLE3=Night Is Fallin' In My Heart
TTITLE4=Down By The Riverside
TTITLE5=Wild Blue Yonder
TTITLE6=Bubba Hyde
TTITLE7=Gone Out Of My Mind
TTITLE8=Appalachian Dream
TTITLE9=Kentucky Mine
EXTD=
EXTT0=
EXTT1=
EXTT2=
EXTT3=
EXTT4=
EXTT5=
EXTT6=
EXTT7=
EXTT8=
EXTT9=
PLAYORDER=
